#N canvas 529 409 501 613 10;
#X obj 70 492 sendOSC;
#X msg 22 408 connect localhost 10001;
#X obj 161 70 hsl 128 15 -1 1 0 0 empty empty empty -2 -8 0 10 -262144
-1 -1 6100 1;
#X obj 229 99 hsl 128 15 -1 1 0 0 empty empty empty -2 -8 0 10 -262144
-1 -1 6400 1;
#X obj 347 134 hsl 128 15 -1 1 0 0 empty empty empty -2 -8 0 10 -262144
-1 -1 6500 1;
#N canvas 1232 738 475 409 normalize 0;
#X obj 59 22 inlet;
#X obj 182 25 inlet;
#X obj 331 26 inlet;
#X obj 58 345 outlet;
#X obj 146 339 outlet;
#X obj 281 337 outlet;
#X obj 211 149 expr sqrt($f1*$f1 + $f2*$f2 + $f3*$f3);
#X obj 85 234 /;
#X obj 171 232 /;
#X obj 281 235 /;
#X obj 57 303 f 0;
#X obj 144 304 f 0;
#X obj 281 296 f 0;
#X obj 61 88 t b f f;
#X obj 12 260 t b b b;
#X obj 330 101 t f b f;
#X obj 184 95 t f b f;
#X obj 211 168 t b f;
#X obj 60 53 f;
#X obj 185 58 f;
#X obj 334 65 f;
#X connect 0 0 18 0;
#X connect 1 0 19 0;
#X connect 2 0 20 0;
#X connect 6 0 17 0;
#X connect 7 0 10 1;
#X connect 8 0 11 1;
#X connect 9 0 12 1;
#X connect 10 0 3 0;
#X connect 11 0 4 0;
#X connect 12 0 5 0;
#X connect 13 0 14 0;
#X connect 13 1 7 0;
#X connect 13 2 6 0;
#X connect 14 0 10 0;
#X connect 14 1 11 0;
#X connect 14 2 12 0;
#X connect 15 0 9 0;
#X connect 15 1 6 0;
#X connect 15 2 6 2;
#X connect 16 0 8 0;
#X connect 16 1 6 0;
#X connect 16 2 6 1;
#X connect 17 0 9 0;
#X connect 17 0 8 0;
#X connect 17 0 7 0;
#X connect 17 1 9 1;
#X connect 17 1 8 1;
#X connect 17 1 7 1;
#X connect 18 0 13 0;
#X connect 19 0 16 0;
#X connect 20 0 15 0;
#X restore 228 219 pd normalize;
#X floatatom 173 275 10 0 0 0 - - -;
#X floatatom 254 274 10 0 0 0 - - -;
#X floatatom 335 272 10 0 0 0 - - -;
#X obj 344 180 t b f;
#X obj 237 147 t b f;
#X obj 20 67 hsl 128 15 -3.14159 3.14159 0 0 empty empty empty -2 -8
0 10 -262144 -1 -1 6400 1;
#X floatatom 32 272 10 0 0 0 - - -;
#X msg 212 430 send /orientation \$1 \$2 \$3 \$4;
#X obj 226 332 pack f f f f;
#X obj 174 298 t b f;
#X connect 1 0 0 0;
#X connect 2 0 5 0;
#X connect 3 0 10 0;
#X connect 4 0 9 0;
#X connect 5 0 6 0;
#X connect 5 1 7 0;
#X connect 5 2 8 0;
#X connect 6 0 15 0;
#X connect 7 0 14 2;
#X connect 8 0 14 3;
#X connect 9 0 5 0;
#X connect 9 1 5 2;
#X connect 10 0 5 0;
#X connect 10 1 5 1;
#X connect 11 0 12 0;
#X connect 12 0 14 0;
#X connect 13 0 0 0;
#X connect 14 0 13 0;
#X connect 15 0 14 0;
#X connect 15 1 14 1;
